<?xml version="1.0" encoding="UTF-8"?>
<svg id="Layer_1" data-name="Layer 1" xmlns="http://www.w3.org/2000/svg" xmlns:xlink="http://www.w3.org/1999/xlink" viewBox="0 0 240 240">
  <defs>
    <style>
      .cls-1 {
        fill: red;
      }

      .cls-2 {
        fill: url(#radial-gradient);
      }
    </style>
    <radialGradient id="radial-gradient" cx="142.54" cy="149.74" fx="142.54" fy="149.74" r="79.76" gradientUnits="userSpaceOnUse">
      <stop offset="0" stop-color="#efca9a"/>
      <stop offset=".17" stop-color="#efc894"/>
      <stop offset=".37" stop-color="#efc386"/>
      <stop offset=".58" stop-color="#efba6e"/>
      <stop offset=".81" stop-color="#efaf4c"/>
      <stop offset="1" stop-color="#f0a32a"/>
    </radialGradient>
  </defs>
  <rect class="cls-2" x="62.78" y="69.98" width="159.53" height="159.53" rx="17.43" ry="17.43"/>
  <path class="cls-1" d="M210.51,168.51c-.94-1.73-2.86-2.81-5.01-2.81h-123.61L150.3,17.26l.12-.31c.76-2.32-.34-4.73-2.67-5.85-2.3-1.11-5.7-.84-7.46,1.84L18.48,198.48c-.96,1.46-1.04,3.25-.22,4.78.94,1.74,2.86,2.81,5.01,2.81h161.89c2.26,0,4.36-1.13,5.6-3.02l19.54-29.76c.96-1.46,1.04-3.25.22-4.78Z"/>
</svg>